<?xml version="1.0" encoding="utf-8"?>
<!-- Generator: Adobe Illustrator 22.0.0, SVG Export Plug-In . SVG Version: 6.00 Build 0)  -->
<svg version="1.1" id="Layer_1" xmlns="http://www.w3.org/2000/svg" xmlns:xlink="http://www.w3.org/1999/xlink" x="0px" y="0px"
	 viewBox="0 0 787.8 680.2" style="enable-background:new 0 0 787.8 680.2;" xml:space="preserve">
<style type="text/css">
	.st0{fill:url(#SVGID_1_);}
	.st1{fill:url(#SVGID_2_);}
	.st2{fill:url(#SVGID_3_);}
	.st3{fill:url(#SVGID_4_);}
	.st4{fill:url(#SVGID_5_);}
	.st5{fill:#FFFFFF;}
	.st6{fill:url(#SVGID_6_);}
	.st7{fill:url(#SVGID_7_);}
	.st8{fill:url(#SVGID_8_);}
	.st9{fill:url(#SVGID_9_);}
	.st10{fill:url(#SVGID_10_);}
	.st11{fill:#F4F4F4;}
	.st12{fill:#97BFE6;}
	.st13{fill:#4672B8;}
	.st14{fill:#5982C2;}
	.st15{fill:#7EA9DA;}
	.st16{fill:#C2D3ED;}
	.st17{fill:#395A89;}
	.st18{fill:#4873B1;}
	.st19{fill:#5A86C5;}
	.st20{fill:#DFDFDE;}
	.st21{fill:#DD3E27;}
	.st22{fill:url(#SVGID_11_);}
	.st23{fill:url(#SVGID_12_);}
	.st24{fill:url(#SVGID_13_);}
	.st25{fill:url(#SVGID_14_);}
	.st26{fill:url(#SVGID_15_);}
	.st27{fill:url(#SVGID_16_);}
	.st28{fill:url(#SVGID_17_);}
	.st29{fill:#5C89C7;}
	.st30{fill:#DDD1C9;}
	.st31{fill:#6D6965;}
	.st32{fill:#C6BBB5;}
	.st33{fill:#958C87;}
	.st34{fill:#A98E75;}
	.st35{fill:#464A72;}
	.st36{fill:#2F3048;}
	.st37{fill:#DCA586;}
	.st38{fill:#3F4249;}
	.st39{fill:#373A57;}
	.st40{fill:#8C8582;}
	.st41{fill:#5E5A56;}
	.st42{fill:#B9AFAB;}
	.st43{fill:#B3A8A3;}
	.st44{fill:#F4F5FB;}
	.st45{fill:#8C8480;}
	.st46{fill:#DEDFE7;}
</style>
<g>
	<g>
		<g>
			
				<linearGradient id="SVGID_1_" gradientUnits="userSpaceOnUse" x1="-12281.6582" y1="-104.6912" x2="-12107.1064" y2="-104.6912" gradientTransform="matrix(-0.9986 -5.380000e-02 -5.380000e-02 0.9986 -12077.6885 -310.8011)">
				<stop  offset="5.181350e-03" style="stop-color:#4C622F"/>
				<stop  offset="1" style="stop-color:#769A41"/>
			</linearGradient>
			<path class="st0" d="M176.5,250c11.3,24.7,17.7,48.1,9.3,58.5c-0.5,0.6-1,1.2-1.6,1.7c-6.4,5.7-19,5.8-40.3-2.6
				c-56.7-22.4-59.4-61.1-70.9-98.8c-11.3-37.3-50.8-31-51.8-30.8C113.3,145.8,157.3,208.1,176.5,250z"/>
			<g>
				
					<linearGradient id="SVGID_2_" gradientUnits="userSpaceOnUse" x1="-3979.8831" y1="3233.0588" x2="-3979.8831" y2="3110.3201" gradientTransform="matrix(0.7495 -0.662 0.662 0.7495 1040.3265 -4734.4629)">
					<stop  offset="5.181350e-03" style="stop-color:#4C622F"/>
					<stop  offset="1" style="stop-color:#769A41"/>
				</linearGradient>
				<path class="st1" d="M185.9,308.4c-0.5,0.6-1,1.2-1.6,1.7c-10.7-6.4-31.1-20-40.7-35.3c-4.5-7.2-8.3-15.3-12.4-23.9
					c-7.6-16.2-15.5-33-29.3-45.9l1.5-1.7c14.1,13.2,22.1,30.1,29.8,46.6c4,8.5,7.8,16.6,12.3,23.6
					C154.9,288.5,175.5,302.2,185.9,308.4z"/>
			</g>
		</g>
		<g>
			
				<linearGradient id="SVGID_3_" gradientUnits="userSpaceOnUse" x1="-12264.9531" y1="-157.3782" x2="-12182.3271" y2="-157.3782" gradientTransform="matrix(-0.9986 -5.380000e-02 -5.380000e-02 0.9986 -12077.6885 -310.8011)">
				<stop  offset="5.181350e-03" style="stop-color:#4C622F"/>
				<stop  offset="1" style="stop-color:#769A41"/>
			</linearGradient>
			<path class="st2" d="M166.7,260c-0.7,1.6-1.1,2.6-1.1,2.7c-0.2-0.9-0.3-1.8-0.5-2.7c-7.6-38.8-17.7-42.8-48-76.7
				c-31-34.7-13.2-67-13.2-67C207.8,146.4,173.7,242.7,166.7,260z"/>
			<g>
				
					<linearGradient id="SVGID_4_" gradientUnits="userSpaceOnUse" x1="-2349.6924" y1="2724.5151" x2="-2349.6924" y2="2603.9963" gradientTransform="matrix(0.8707 -0.4917 0.4917 0.8707 881.1072 -3271.0833)">
					<stop  offset="5.181350e-03" style="stop-color:#4C622F"/>
					<stop  offset="1" style="stop-color:#769A41"/>
				</linearGradient>
				<path class="st3" d="M166.7,260c-0.7,1.6-1.1,2.6-1.1,2.7c-0.2-0.9-0.3-1.8-0.5-2.7c3.4-33.5-16.8-72.8-23.2-79.9
					c-6.6-7.3-10.6-17.4-12.2-21.1c-0.3-0.6-0.5-1.2-0.6-1.4l1.5-0.8c0.1,0.2,0.3,0.6,0.7,1.6c1.5,3.7,5.5,13.6,11.8,20.6
					C151.1,188,169.8,227.5,166.7,260z"/>
			</g>
		</g>
	</g>
	<g>
		<linearGradient id="SVGID_5_" gradientUnits="userSpaceOnUse" x1="120.84" y1="504.9985" x2="218.7241" y2="504.9985">
			<stop  offset="0" style="stop-color:#82D2E3"/>
			<stop  offset="1" style="stop-color:#6171B6"/>
		</linearGradient>
		<path class="st4" d="M129.4,375.7c8.4-4,16.8,22.8,16.8,22.8c14.3,19,34.4-6.3,32.4,22.1c-3.4,49.6,57.1,15.6,29.2,67.4
			c-27.9,51.8,24.6,29.3,7.3,71c-17.3,41.7,5.1,91.5-21,71.1c0,0-23-50.4-46.7-66c-23.7-15.6,14.2-34.1,6.8-55.3
			c-10.8-30.8-36.7-29.6-18-62.6C155,413.1,100.7,389.4,129.4,375.7z"/>
		<g>
			<path class="st5" d="M202.4,611c-11.3-8-24.6-63.4-25.3-96.4c-0.4-16.9-5.4-24-9.8-30.2c-4.2-5.9-7.9-11.1-5.7-22.9
				c4.1-22.5-6.6-32.3-6.7-32.3l1.2-1.4c0.5,0.4,11.6,10.4,7.3,34.1c-2,11,1.3,15.6,5.4,21.5c4.3,6.1,9.7,13.7,10.2,31.2
				c0.8,35.4,14.4,87.8,24.5,94.9L202.4,611z"/>
		</g>
		<g>
			<linearGradient id="SVGID_6_" gradientUnits="userSpaceOnUse" x1="192.6448" y1="559.619" x2="281.1635" y2="559.619">
				<stop  offset="0" style="stop-color:#82D2E3"/>
				<stop  offset="1" style="stop-color:#6171B6"/>
			</linearGradient>
			<path class="st6" d="M206.7,615.2c-1.5,0-3-0.2-4.8-0.5c-4.4-0.9-7.2-3.2-8.5-6.8c-3-8.7,4-22.9,9.8-29.7
				c0.1-0.1,9.7-11.8,8.7-28.1c-0.2-2.7-0.5-5.2-0.7-7.5c-0.7-6.4-1.2-11.1,1.5-14.2c2.4-2.7,7.1-3.9,15.7-4
				c15.1-0.1,21-6.3,25.8-11.3c2-2.1,3.9-4.1,6.3-5.4l0,0c7.5-4.1,15.5-4.7,18.9-1.4c1.6,1.6,3,4.6,0.3,10.3
				c-2.5,5.2-5.7,8.5-8.3,11.1c-3.5,3.5-5.8,5.9-4.6,10.6c0.3,1.1,0.6,2.2,0.9,3.3c2.3,7.9,5,16.9-8.6,23c-2.9,1.3-5.5,2.3-7.8,3.2
				c-9.5,3.7-15.2,6-21.7,19.6c-1.3,2.6-2.4,5.1-3.4,7.6C221,606.4,217.2,615.2,206.7,615.2z M261.3,509.3c-2.1,1.1-3.8,3-5.8,5.1
				c-5,5.3-11.3,11.8-27.1,11.9c-7.9,0-12.3,1.1-14.3,3.3c-2.2,2.5-1.7,6.8-1.1,12.7c0.3,2.2,0.5,4.8,0.7,7.6
				c1.1,17-8.7,28.9-9.1,29.4c-5.7,6.8-12.1,20.2-9.4,27.9c1,3,3.4,4.9,7.1,5.6c12.8,2.6,16.3-5.4,22.2-18.7
				c1.1-2.4,2.2-4.9,3.4-7.6c6.8-14.3,13.1-16.8,22.7-20.6c2.3-0.9,4.9-1.9,7.7-3.2c12.1-5.4,9.9-12.9,7.6-20.8
				c-0.3-1.1-0.7-2.3-0.9-3.4c-1.5-5.7,1.4-8.6,5.1-12.3c2.6-2.7,5.6-5.7,7.9-10.6c1.2-2.6,2.2-6.1,0.1-8.1
				C275.2,504.9,268,505.6,261.3,509.3L261.3,509.3z"/>
		</g>
		<g>
			<linearGradient id="SVGID_7_" gradientUnits="userSpaceOnUse" x1="200.2109" y1="572.4907" x2="266.6512" y2="572.4907">
				<stop  offset="0" style="stop-color:#82D2E3"/>
				<stop  offset="1" style="stop-color:#6171B6"/>
			</linearGradient>
			<path class="st7" d="M202.1,626l-1.9-0.1c0.1-1.8,2.5-43.1,19.1-55.2c18.2-13.3,24-27.6,26.7-37.1c3.2-11.3,19.6-14.3,20.3-14.4
				l0.3,1.8c-0.2,0-16,2.9-18.9,13.1c-2.8,9.9-8.7,24.5-27.4,38.1C204.5,583.7,202.1,625.5,202.1,626z"/>
		</g>
		<linearGradient id="SVGID_8_" gradientUnits="userSpaceOnUse" x1="176.22" y1="519.0253" x2="253.5941" y2="519.0253">
			<stop  offset="0" style="stop-color:#82D2E3"/>
			<stop  offset="1" style="stop-color:#6171B6"/>
		</linearGradient>
		<path class="st8" d="M240.1,417.4c-11.8-4-9.4,18.7-14.3,35.6c-5,16.8-55.5,7.3-34.3,49.5c21.2,42.2-26.8,14.1-12.5,50.9
			c14.3,36.8,1.2,76.2,16.8,66.1c15.6-10,8.8-56.4,25-61.9c16.2-5.5,18.9-11.9,2.8-26.9c-16.1-15,42.1-29.8,27.7-60.1
			C237,440.5,253.7,422.1,240.1,417.4z"/>
		<g>
			<path class="st5" d="M203,617.8c-1.5-6.3-14.2-61.7-2.3-68.4c10.4-5.9,10.2-28.9,8.5-50.6c-1.4-19.2,23.2-28.2,24.3-28.5l0.6,1.8
				c-0.2,0.1-24.4,8.9-23,26.6c1.7,22.3,1.9,45.9-9.5,52.3c-9,5.1-0.7,49.6,3.2,66.4L203,617.8z"/>
		</g>
		<linearGradient id="SVGID_9_" gradientUnits="userSpaceOnUse" x1="158.4648" y1="630.0103" x2="229.8629" y2="630.0103">
			<stop  offset="0" style="stop-color:#DD3E27"/>
			<stop  offset="1" style="stop-color:#F37A6D"/>
		</linearGradient>
		<polygon class="st9" points="229.9,598 213,662 175.3,662 158.5,598 		"/>
		<linearGradient id="SVGID_10_" gradientUnits="userSpaceOnUse" x1="158.4648" y1="630.0103" x2="229.8629" y2="630.0103">
			<stop  offset="0" style="stop-color:#AD2624"/>
			<stop  offset="1" style="stop-color:#F16051"/>
		</linearGradient>
		<path class="st10" d="M229.9,598c0,0-37.1,7-37.1,64h-17.4l-16.9-64H229.9z"/>
	</g>
	<g>
		<g>
			<path class="st11" d="M389.9,545.9h271.8c12.3,0,22.3-10,22.3-22.3V278.5c0-12.3-10-22.3-22.3-22.3H389.9
				c-12.3,0-22.3,10-22.3,22.3v245.1C367.6,535.9,377.6,545.9,389.9,545.9z"/>
			<g>
				<g>
					<path class="st12" d="M623.6,370.9c18.6-6.7,30.1-24.5,29.5-43.2c-0.1-4.5-1-9.1-2.6-13.7c-4.9-13.7-15.8-23.5-28.6-27.5
						c-8.9-2.8-18.8-2.8-28.2,0.6c-0.9,0.3-1.9,0.7-2.8,1.1c-4.1,1.8-7.8,4.1-11.1,6.9c-13.7,11.6-19.5,31-13.1,48.9
						C575,367.1,600.4,379.2,623.6,370.9z M577.2,340.2c-4.8-13.4-0.5-27.9,9.8-36.6c2.4-2.1,5.2-3.8,8.3-5.2
						c0.7-0.3,1.4-0.6,2.1-0.8c7.1-2.5,14.5-2.5,21.2-0.4c9.6,3,17.8,10.4,21.5,20.6c1.2,3.4,1.8,6.8,1.9,10.2
						c0.4,14.1-8.2,27.4-22.1,32.4C602.5,366.6,583.4,357.6,577.2,340.2z"/>
				</g>
				<g>
					<path class="st13" d="M618.5,297.2l3.3-10.6c12.9,4,23.7,13.8,28.6,27.5c1.6,4.5,2.5,9.1,2.6,13.7L642,328
						c-0.1-3.4-0.7-6.9-1.9-10.2C636.4,307.5,628.2,300.2,618.5,297.2z"/>
				</g>
				<g>
					<path class="st14" d="M595.3,298.4l-4.4-10.2c0.9-0.4,1.8-0.8,2.8-1.1c9.5-3.4,19.3-3.4,28.2-0.6l-3.3,10.6
						c-6.7-2.1-14.1-2.1-21.2,0.4C596.7,297.9,596,298.1,595.3,298.4z"/>
				</g>
				<g>
					<path class="st15" d="M579.8,295.1c3.3-2.8,7-5.1,11.1-6.9l4.4,10.2c-3.1,1.3-5.9,3.1-8.3,5.2L579.8,295.1z"/>
				</g>
			</g>
			<g>
				
					<rect x="425.1" y="434.3" transform="matrix(-1 -4.488289e-11 4.488289e-11 -1 865.621 921.5374)" class="st15" width="15.4" height="52.9"/>
			</g>
			<g>
				
					<rect x="448" y="449.2" transform="matrix(-1 -4.488111e-11 4.488111e-11 -1 911.5342 936.3713)" class="st15" width="15.4" height="38.1"/>
			</g>
			<g>
				
					<rect x="402.8" y="409.8" transform="matrix(-1 -4.488111e-11 4.488111e-11 -1 821.0829 897.0237)" class="st15" width="15.4" height="77.4"/>
			</g>
			<g>
				<polygon class="st15" points="405.3,371.1 405.6,369.5 446.3,376.1 459.5,404.3 503.5,407.3 517.7,428.3 551.3,427.4 
					551.3,429.1 516.8,430 502.5,408.9 458.4,405.9 445.2,377.7 				"/>
			</g>
			<path class="st14" d="M455.1,300.7h-43.9c-2.8,0-5-2.2-5-5l0,0c0-2.8,2.2-5,5-5h43.9c2.8,0,5,2.2,5,5l0,0
				C460.1,298.4,457.9,300.7,455.1,300.7z"/>
			<path class="st15" d="M455.1,318.2h-43.9c-2.8,0-5-2.2-5-5l0,0c0-2.8,2.2-5,5-5h43.9c2.8,0,5,2.2,5,5l0,0
				C460.1,315.9,457.9,318.2,455.1,318.2z"/>
			<path class="st15" d="M455.1,335.7h-43.9c-2.8,0-5-2.2-5-5l0,0c0-2.8,2.2-5,5-5h43.9c2.8,0,5,2.2,5,5l0,0
				C460.1,333.4,457.9,335.7,455.1,335.7z"/>
			<g>
				<polygon class="st15" points="534.6,309.3 559.7,309.3 559.7,308.4 535,308.4 521.8,295.2 505.6,295.2 505.6,296.1 521.4,296.1 
									"/>
			</g>
			<g>
				<polygon class="st15" points="510.8,353.2 543.1,353.2 553.6,342.7 552.9,342.1 542.7,352.3 510.8,352.3 				"/>
			</g>
			
				<rect x="485.9" y="301.5" transform="matrix(-1 -4.492774e-11 4.492774e-11 -1 1005.2638 607.1967)" class="st14" width="33.5" height="4.1"/>
			
				<rect x="502.6" y="343.5" transform="matrix(-1 -4.491619e-11 4.491619e-11 -1 1032.2351 691.0302)" class="st14" width="27" height="4.1"/>
		</g>
		<g>
			<g>
				<g>
					<polygon class="st16" points="192.1,33.8 192.1,39.2 139.3,39.2 139.3,92.1 133.8,92.1 133.8,33.8 					"/>
				</g>
				<rect x="627.7" y="18" class="st16" width="43" height="3"/>
				<rect x="627.7" y="23.7" class="st16" width="43" height="12.7"/>
				<rect x="598.2" y="28.5" class="st16" width="25.4" height="1.9"/>
				<rect x="598.2" y="31.2" class="st16" width="25.4" height="5.1"/>
				<rect x="669.8" y="18" class="st16" width="1.9" height="35.5"/>
			</g>
			<g>
				<path class="st11" d="M623,246.1H179.7c-16.6,0-30-13.4-30-30V89.3c0-16.6,13.4-30,30-30H623c16.6,0,30,13.4,30,30v126.8
					C653,232.7,639.6,246.1,623,246.1z"/>
				<g>
					<g>
						<g>
							<path class="st15" d="M299.9,135.2c-9.8-27.4-35.9-44.2-63.5-43.3c-6.7,0.2-13.4,1.4-20.1,3.8c-20.1,7.2-34.5,23.2-40.4,42.1
								c-4.1,13.1-4.1,27.6,0.9,41.5c0.5,1.4,1,2.7,1.6,4.1c2.6,6,6.1,11.5,10.1,16.3c17.1,20.1,45.5,28.6,71.8,19.2
								C294.4,206.6,312.1,169.2,299.9,135.2z M254.9,203.3c-19.7,7.1-41,0.7-53.9-14.4c-3.1-3.6-5.6-7.7-7.6-12.2
								c-0.4-1-0.8-2-1.2-3.1c-3.7-10.4-3.7-21.3-0.6-31.1c4.4-14.2,15.2-26.2,30.3-31.5c5-1.8,10-2.7,15-2.9
								c20.7-0.6,40.3,12,47.6,32.5C293.6,166.2,280.3,194.2,254.9,203.3z"/>
						</g>
					</g>
					<g>
						<g>
							<path class="st17" d="M191.6,142.6l-15.6-4.9c5.9-18.9,20.3-34.9,40.4-42.1c6.6-2.4,13.4-3.6,20.1-3.8l0.5,16.4
								c-5,0.2-10.1,1.1-15,2.9C206.8,116.4,196,128.4,191.6,142.6z"/>
						</g>
					</g>
					<g>
						<g>
							<path class="st18" d="M193.4,176.7l-15,6.5c-0.6-1.3-1.1-2.7-1.6-4.1c-5-13.9-5-28.4-0.9-41.5l15.6,4.9
								c-3.1,9.8-3.1,20.7,0.6,31.1C192.6,174.7,193,175.7,193.4,176.7z"/>
						</g>
					</g>
					<g>
						<g>
							<path class="st19" d="M188.5,199.5c-4.1-4.8-7.5-10.2-10.1-16.3l15-6.5c2,4.5,4.5,8.6,7.6,12.2L188.5,199.5z"/>
						</g>
					</g>
				</g>
				<g>
					<g>
						<g>
							<rect x="325.7" y="139.2" class="st20" width="11.6" height="82.5"/>
						</g>
						<g>
							<rect x="354.5" y="155.9" class="st20" width="11.6" height="65.7"/>
						</g>
						<g>
							<rect x="383.2" y="143.6" class="st20" width="11.6" height="78"/>
						</g>
						<g>
							<rect x="412" y="167.9" class="st20" width="11.6" height="53.7"/>
						</g>
						<g>
							<rect x="440.7" y="146.1" class="st20" width="11.6" height="75.5"/>
						</g>
						<g>
							<rect x="469.5" y="134.7" class="st20" width="11.6" height="86.9"/>
						</g>
						<g>
							<rect x="498.2" y="130" class="st20" width="11.6" height="91.6"/>
						</g>
						<g>
							<rect x="325.7" y="169.9" class="st21" width="11.6" height="51.7"/>
						</g>
						<g>
							<rect x="354.5" y="180.4" class="st21" width="11.6" height="41.2"/>
						</g>
						<g>
							<rect x="383.2" y="172.7" class="st21" width="11.6" height="49"/>
						</g>
						<g>
							<rect x="412" y="187.9" class="st21" width="11.6" height="33.7"/>
						</g>
						<g>
							<rect x="440.7" y="174.2" class="st21" width="11.6" height="47.4"/>
						</g>
						<g>
							<rect x="469.5" y="167.1" class="st21" width="11.6" height="54.5"/>
						</g>
						<g>
							<rect x="498.2" y="164.1" class="st21" width="11.6" height="57.5"/>
						</g>
					</g>
					<g>
						<rect x="529.9" y="139.2" class="st20" width="11.6" height="82.5"/>
					</g>
					<g>
						<rect x="558.7" y="155.9" class="st20" width="11.6" height="65.7"/>
					</g>
					<g>
						<rect x="587.4" y="143.6" class="st20" width="11.6" height="78"/>
					</g>
					<g>
						<rect x="616.2" y="167.9" class="st20" width="11.6" height="53.7"/>
					</g>
					<g>
						<rect x="529.9" y="169.9" class="st21" width="11.6" height="51.7"/>
					</g>
					<g>
						<rect x="558.7" y="180.4" class="st21" width="11.6" height="41.2"/>
					</g>
					<g>
						<rect x="587.4" y="172.7" class="st21" width="11.6" height="49"/>
					</g>
					<g>
						<rect x="616.2" y="187.9" class="st21" width="11.6" height="33.7"/>
					</g>
				</g>
				<path class="st15" d="M323.7,98.4h299.6c2.4,0,4.4-2,4.4-4.4v-3c0-2.4-2-4.4-4.4-4.4H323.7c-2.4,0-4.4,2-4.4,4.4v3
					C319.3,96.5,321.3,98.4,323.7,98.4z"/>
				<path class="st16" d="M323.7,119h299.6c2.4,0,4.4-2,4.4-4.4v-3c0-2.4-2-4.4-4.4-4.4H323.7c-2.4,0-4.4,2-4.4,4.4v3
					C319.3,117,321.3,119,323.7,119z"/>
			</g>
		</g>
		<g>
			<g>
				<path class="st11" d="M346.5,494.8H234.1c-7.7,0-14-6.3-14-14V270.5c0-7.7,6.3-14,14-14h112.4c7.7,0,14,6.3,14,14v210.3
					C360.5,488.5,354.2,494.8,346.5,494.8z"/>
			</g>
			<g>
				<g>
					<rect x="229.9" y="398.6" class="st15" width="0.6" height="78.8"/>
				</g>
				<g>
					<rect x="259.7" y="398.6" class="st15" width="0.6" height="78.8"/>
				</g>
				<g>
					<rect x="289.6" y="398.6" class="st15" width="0.6" height="78.8"/>
				</g>
				<g>
					<rect x="319.5" y="398.6" class="st15" width="0.6" height="78.8"/>
				</g>
				<g>
					<rect x="349.3" y="398.6" class="st15" width="0.6" height="78.8"/>
				</g>
			</g>
			<linearGradient id="SVGID_11_" gradientUnits="userSpaceOnUse" x1="230.1565" y1="440.8411" x2="349.6286" y2="440.8411">
				<stop  offset="0" style="stop-color:#82D2E3"/>
				<stop  offset="1" style="stop-color:#6171B6"/>
			</linearGradient>
			<path class="st22" d="M230.2,445.5c0,0,12.2,10.2,23.9-1.9c11.8-12.1,25.3-16.2,37.3-6c12,10.2,16.7-3.8,28.7-15.3
				c12-11.5,11.8-18,29.6-18v73.2H230.2V445.5z"/>
			<rect x="260" y="392.1" class="st15" width="7.4" height="2.9"/>
			<rect x="229.9" y="392.1" class="st15" width="10.1" height="2.9"/>
			<rect x="289.9" y="392.1" class="st15" width="9.1" height="2.9"/>
			<rect x="319.5" y="392.1" class="st15" width="9.1" height="2.9"/>
			<rect x="340.5" y="392.1" class="st15" width="9.1" height="2.9"/>
			<linearGradient id="SVGID_12_" gradientUnits="userSpaceOnUse" x1="304.4681" y1="342.793" x2="344.4068" y2="342.793">
				<stop  offset="0" style="stop-color:#82D2E3"/>
				<stop  offset="1" style="stop-color:#6171B6"/>
			</linearGradient>
			<rect x="304.5" y="340.3" class="st23" width="39.9" height="5.1"/>
			<linearGradient id="SVGID_13_" gradientUnits="userSpaceOnUse" x1="304.4681" y1="363.9689" x2="341.1303" y2="363.9689">
				<stop  offset="0" style="stop-color:#82D2E3"/>
				<stop  offset="1" style="stop-color:#6171B6"/>
			</linearGradient>
			<rect x="304.5" y="361.4" class="st24" width="36.7" height="5.1"/>
			<linearGradient id="SVGID_14_" gradientUnits="userSpaceOnUse" x1="304.4681" y1="353.3826" x2="336.1898" y2="353.3826">
				<stop  offset="0" style="stop-color:#82D2E3"/>
				<stop  offset="1" style="stop-color:#6171B6"/>
			</linearGradient>
			<rect x="304.5" y="350.9" class="st25" width="31.7" height="5.1"/>
			<path class="st15" d="M268.7,333.1c0,3.9-3.1,7-7,7c-3.9,0-7-3.1-7-7c0-3.9,3.1-7,7-7C265.5,326.1,268.7,329.2,268.7,333.1z"/>
			<path class="st15" d="M274.3,355.8v13.3c-3.9,1.8-8.1,2.7-12.7,2.7c-4.5,0-8.8-1-12.7-2.7v-13.3c0-7,5.7-12.7,12.7-12.7
				C268.6,343.2,274.3,348.8,274.3,355.8z"/>
			<g>
				<linearGradient id="SVGID_15_" gradientUnits="userSpaceOnUse" x1="230.1565" y1="341.2051" x2="293.0746" y2="341.2051">
					<stop  offset="0" style="stop-color:#D3D8DE"/>
					<stop  offset="1" style="stop-color:#FFFFFF"/>
				</linearGradient>
				<path class="st26" d="M261.6,372.7c-4.5,0-8.9-0.9-13-2.8c-11.2-5.1-18.5-16.3-18.5-28.7c0-17.3,14.1-31.5,31.5-31.5
					c17.3,0,31.5,14.1,31.5,31.5c0,12.3-7.2,23.6-18.5,28.7C270.5,371.7,266.2,372.7,261.6,372.7z M261.6,311.4
					c-16.4,0-29.8,13.4-29.8,29.8c0,11.7,6.9,22.3,17.5,27.1c3.9,1.8,8,2.7,12.3,2.7c4.3,0,8.4-0.9,12.3-2.7
					c10.6-4.8,17.5-15.5,17.5-27.1C291.4,324.8,278,311.4,261.6,311.4z"/>
			</g>
			<g>
				<path class="st15" d="M324,327.9c-10.5,0-19-8.5-19-19c0-10.5,8.5-19,19-19c10.5,0,19,8.5,19,19
					C343,319.4,334.5,327.9,324,327.9z M324,293.7c-8.4,0-15.2,6.8-15.2,15.2c0,8.4,6.8,15.2,15.2,15.2c8.4,0,15.2-6.8,15.2-15.2
					C339.2,300.5,332.4,293.7,324,293.7z"/>
			</g>
			<rect x="260.2" y="271" class="st15" width="28.6" height="4.6"/>
			<rect x="264.4" y="282.8" class="st15" width="24.4" height="4.6"/>
			<rect x="249.6" y="294.6" class="st15" width="39.3" height="4.6"/>
		</g>
		<g>
			<g>
				<path class="st11" d="M209.8,323.8h-88.1c-2,0-3.5-1.6-3.5-3.5v-60.8c0-2,1.6-3.5,3.5-3.5h88.1c2,0,3.5,1.6,3.5,3.5v60.8
					C213.3,322.2,211.7,323.8,209.8,323.8z"/>
			</g>
			<linearGradient id="SVGID_16_" gradientUnits="userSpaceOnUse" x1="125.8494" y1="276.2921" x2="159.0592" y2="276.2921">
				<stop  offset="0" style="stop-color:#7EA9DA"/>
				<stop  offset="1" style="stop-color:#5885C4"/>
			</linearGradient>
			<path class="st27" d="M157.1,278.7h-29.3c-1.1,0-2-0.9-2-2v-0.9c0-1.1,0.9-2,2-2h29.3c1.1,0,2,0.9,2,2v0.9
				C159.1,277.8,158.2,278.7,157.1,278.7z"/>
			<linearGradient id="SVGID_17_" gradientUnits="userSpaceOnUse" x1="125.8494" y1="265.3472" x2="151.8732" y2="265.3472">
				<stop  offset="0" style="stop-color:#7EA9DA"/>
				<stop  offset="1" style="stop-color:#5885C4"/>
			</linearGradient>
			<path class="st28" d="M150.1,267.8h-22.5c-1,0-1.8-0.8-1.8-1.7v-1.3c0-1,0.8-1.8,1.8-1.8h22.5c1,0,1.7,0.8,1.7,1.7v1.3
				C151.9,267,151.1,267.8,150.1,267.8z"/>
			<polygon class="st15" points="125.8,314.5 145.1,295.2 150.8,301 172,279.8 181.3,289.2 205.9,264.7 205.9,314.5 			"/>
			<polygon class="st29" points="205.6,314.5 205.6,276.3 180.3,301.6 171.3,292.5 156.2,307.6 144.7,303.1 125.8,314.5 			"/>
		</g>
	</g>
	<g>
		<g>
			
				<rect x="629.9" y="502.4" transform="matrix(-1 -4.492863e-11 4.492863e-11 -1 1312.907 1008.017)" class="st30" width="53.1" height="3.2"/>
		</g>
		<g>
			<rect x="671.2" y="513.8" class="st31" width="4.7" height="143.4"/>
		</g>
		<g>
			
				<rect x="601.3" y="501.5" transform="matrix(-1 -4.493040e-11 4.493040e-11 -1 1239.4938 1007.5782)" class="st32" width="36.9" height="4.5"/>
		</g>
		<g>
			
				<rect x="612.8" y="463.1" transform="matrix(-1 -4.488733e-11 4.488733e-11 -1 1239.4944 968.7025)" class="st33" width="14" height="42.5"/>
		</g>
		<g>
			
				<rect x="497.5" y="505.6" transform="matrix(-1 -4.488555e-11 4.488555e-11 -1 1199.5634 1019.4312)" class="st34" width="204.6" height="8.2"/>
		</g>
		<g>
			<path class="st21" d="M741.3,456.3c0,0,2.2,31.4-3.9,35.1c-3.8,2.4-19.2,10.3-18.7,11.8c0.5,1.5,8.6,13.2,8.6,13.2
				s29.4-19.4,30.4-25.5c0.9-6-1.4-45.9-5.5-47.8c-3-1.4-4.6-0.2-8.4,2.6C738.5,449.7,741.3,456.3,741.3,456.3z"/>
		</g>
		<g>
			<g>
				<g>
					<path class="st35" d="M705.1,637.6c0,0,0.9,6.3,1,7.3c0.1,1,10.2-0.6,10.2-0.6l0.8-7.6C717.2,636.8,706.4,636.7,705.1,637.6z"
						/>
				</g>
			</g>
		</g>
		<g>
			<g>
				<g>
					<path class="st36" d="M706.1,644.1c0,0-3.2,3.8-6.3,5.5c-3.1,1.7-7.9,2.3-9.8,4.1c-1.3,1.2-4.8,6.6,8,6.5
						c12.8-0.1,19,0.8,20.3-1.3c1.4-2.1-2-15.2-2-15.2S713.4,644.8,706.1,644.1z"/>
				</g>
			</g>
		</g>
		<g>
			<g>
				<g>
					<path class="st35" d="M640.7,637.7c0,0,0.9,6.3,1,7.3c0.1,1,10.2-0.6,10.2-0.6l0.8-7.6C652.7,636.9,641.9,636.8,640.7,637.7z"
						/>
				</g>
			</g>
		</g>
		<g>
			<g>
				<g>
					<path class="st36" d="M641.6,644.2c0,0-3.2,3.8-6.3,5.5c-3.1,1.7-14.4,3-16.3,4.8c-1.3,1.2-3.5,6.3,14.5,5.8
						c12.8-0.3,19,0.8,20.3-1.3c1.4-2.1-2-15.2-2-15.2S649.1,644.9,641.6,644.2z"/>
				</g>
			</g>
		</g>
		<g>
			<g>
				<g>
					<path class="st36" d="M737.6,527.9c0,0-36.6,6.2-44.8,7.5c-8.3,1.3-53.1,12.4-58.7,15.8c-4.5,2.7,2.3,67.6,3.9,92.4h17.6
						l1.3-74.3c21.2,0.5,36.3-5,51.7-2.6c15.4,2.3,28.3,5.7,38.1-7.5C746.7,559.3,747.1,530.8,737.6,527.9z"/>
				</g>
			</g>
		</g>
		<g>
			<g>
				<g>
					<path class="st36" d="M701.5,643.7l17.2-1.1l1.7-73.3c9.1,0.2,12.2-0.4,19.6-1.2l13.9-32.3c-12.2,2.4-51.1,12.3-56.3,15.4
						C693.1,554,700,619,701.5,643.7z"/>
				</g>
			</g>
		</g>
		<g>
			<g>
				<g>
					<path class="st37" d="M720.8,390.8c0,0-13.4-3.7-18.5,6.7c-5.1,10.4-2.8,30.1,4,32c6.8,1.9,16.5-0.3,19.3-6.8
						c2.8-6.5,5-15.7,4.4-21.6C729.2,395.2,724.3,392.3,720.8,390.8z"/>
				</g>
			</g>
		</g>
		<g>
			<g>
				<g>
					<path class="st37" d="M709.7,427.5c0,0,0.1,7.9-0.7,9.6c-0.9,1.7,18.7,1.3,18.7,1.3s-3.1-9.5-1.3-17.6
						C728,412.7,709.7,427.5,709.7,427.5z"/>
				</g>
			</g>
		</g>
		<g>
			<g>
				<g>
					<path class="st38" d="M727.4,417.7c0,0-1,2.1-6.1,1.8c-5.1-0.3-11.7-6.4-13.9-7c-2.1-0.5-2.3-1.8-2.3-1.8l-1.1,2l-2.2,0.3
						c0,0,1.5-6.1-1.8-8.3c-3.3-2.2,1.5-19.5,18-15.3c0,0,12.6,2.3,12.8,9.3C730.9,405.9,729.8,414,727.4,417.7z"/>
				</g>
			</g>
		</g>
		<g>
			<g>
				<g>
					<path class="st30" d="M707.9,436.9c0,0,0.1-3.2,1.5-3.5c1.5-0.3,15.4-2.2,17.2-1.5l0.8,4.3
						C727.4,436.1,723.9,438.2,707.9,436.9z"/>
				</g>
			</g>
		</g>
		<g>
			<g>
				<g>
					<path class="st37" d="M703.9,409.3c0.4-2.6,3.4-5.7,5.1-1.6c1.7,4.1-1.2,10.1-3.1,9.8C704,417.2,703.4,412.9,703.9,409.3z"/>
				</g>
			</g>
		</g>
		<g>
			<g>
				<g>
					<path class="st39" d="M649.7,475C649.7,475,649.7,475,649.7,475C649.6,475,649.6,475,649.7,475z"/>
				</g>
			</g>
		</g>
		<g>
			<g>
				<g>
					<path class="st38" d="M724.7,392.7c0,0,16.3-0.8,2.9,24.7L724.7,392.7z"/>
				</g>
			</g>
		</g>
		<g>
			<g>
				<polygon class="st40" points="761.1,652.4 759.9,655.9 708.5,639.9 710.9,633 				"/>
			</g>
		</g>
		<g>
			<g>
				
					<rect x="706.7" y="581.6" transform="matrix(-1 -4.484736e-11 4.484736e-11 -1 1419.2921 1219.1224)" class="st40" width="5.8" height="55.9"/>
			</g>
		</g>
		<g>
			<g>
				
					<rect x="692.4" y="578.7" transform="matrix(-1 -4.482959e-11 4.482959e-11 -1 1419.2897 1160.6125)" class="st41" width="34.4" height="3.3"/>
			</g>
		</g>
		<g>
			<g>
				<polygon class="st40" points="657.8,652.4 659,655.9 710.4,639.9 708.1,632.6 				"/>
			</g>
		</g>
		<g>
			<g>
				<polygon class="st40" points="694,655.5 694,659.5 710.4,639.9 708.1,632.6 				"/>
			</g>
		</g>
		<g>
			<g>
				<path class="st42" d="M652.9,657.2c0,2.6,2.1,4.8,4.8,4.8c2.6,0,4.8-2.2,4.8-4.8c0-2.7-2.2-4.8-4.8-4.8
					C655.1,652.4,652.9,654.5,652.9,657.2z"/>
			</g>
		</g>
		<g>
			<g>
				<path class="st42" d="M693.5,657.2c0,2.6,2.2,4.8,4.8,4.8c2.7,0,4.8-2.2,4.8-4.8c0-2.7-2.1-4.8-4.8-4.8
					C695.7,652.4,693.5,654.5,693.5,657.2z"/>
			</g>
		</g>
		<g>
			<g>
				<path class="st42" d="M756.3,657.2c0,2.6,2.1,4.8,4.8,4.8c2.7,0,4.8-2.2,4.8-4.8c0-2.7-2.1-4.8-4.8-4.8
					C758.4,652.4,756.3,654.5,756.3,657.2z"/>
			</g>
		</g>
		<g>
			<path class="st30" d="M674.8,578.7H744c3.4,0,6.2-2.8,6.2-6.2l0,0c0-3.4-2.8-6.2-6.2-6.2h-69.1c-3.4,0-6.2,2.8-6.2,6.2l0,0
				C668.6,575.9,671.4,578.7,674.8,578.7z"/>
		</g>
		<g>
			
				<rect x="523.7" y="513.8" transform="matrix(-1 -4.455737e-11 4.455737e-11 -1 1051.9948 1170.9833)" class="st31" width="4.7" height="143.4"/>
		</g>
		<g>
			<path class="st43" d="M566.5,483.6H673c3.9,0,7.1-3.2,7.1-7.1v-71c0-3.9-3.2-7.1-7.1-7.1H566.5c-3.9,0-7.1,3.2-7.1,7.1v71
				C559.4,480.4,562.6,483.6,566.5,483.6z"/>
		</g>
		<g>
			
				<rect x="564.1" y="403" transform="matrix(-1 -4.490509e-11 4.490509e-11 -1 1239.4944 873.2365)" class="st44" width="111.3" height="67.2"/>
		</g>
		<g>
			<path class="st45" d="M660,476.6c0,1.9,2,3.5,4.5,3.5c2.5,0,4.5-1.5,4.5-3.5c0-1.9-2-3.5-4.5-3.5C662,473.1,660,474.7,660,476.6z
				"/>
		</g>
		<g>
			<path class="st33" d="M594.8,505.7v-1.5c0,0,2.1-9.4,17.2-9.4c15.1,0,14.8,10.9,14.8,10.9H594.8z"/>
		</g>
		<g>
			<g>
				<path class="st37" d="M626.9,496.2c0,0-3.3-0.3-4.5-1c-1.2-0.7-8.4-5.6-10.1-4.8c-1.7,0.8-12.9,4.2-12.5,5.9
					c0.4,1.6,1.4,1.5,2.2,1.2c0.8-0.3,8.9-2,9.7-1.7c0,0-8,2.9-8,5c0,2.1,1.7,2.7,2.4,3.5c0.8,0.8,1.7,2.8,3.7,3
					c2.1,0.2,12.1-3.3,14.2-3.5c2.1-0.2,5.9,0.1,6.2-0.2C630.5,503.2,626.9,496.2,626.9,496.2z"/>
			</g>
		</g>
		<g>
			<g>
				<g>
					<path class="st21" d="M686.5,441.3c10.4-1.8,21.4-4.5,21.4-4.5l19.4-0.8c0,0,17.8,3.9,24.9,7.1c0.7,0.3,0.7,15.9,2.5,20
						l-5.8,12.3c0,0-3.4,24.3-4.1,35.2c-0.3,5,0.9,48,0.9,48s-1.7,0.9-15,2.3c-13.3,1.5-46.4-0.5-46.6-2.1
						c-0.2-1.6,6.4-58.4,6.7-61.3c0.5-4.5-1.3-25.4-1.3-25.4c-2.5,3.4-8.9,18.5-15.5,25.7c-3.9,4.2-23.3,6.8-26.9,7
						c-7.9,0.3-22.4,1.8-22.8,1.1c-0.3-0.5-1.3-12.9-0.4-13.2c0.8-0.3,27.7-1.8,34.6-5.5c2.5-1.3,10.1-17.8,10.1-17.8
						S680.8,443.9,686.5,441.3z"/>
				</g>
			</g>
		</g>
		<g>
			<path class="st30" d="M726.7,557.5h29c7.5,0,13.7-6.1,13.7-13.7v-50.6c0-7.5-6.1-13.7-13.7-13.7h-28.9c-7.5,0-13.7,6.1-13.7,13.7
				v50.6C713,551.3,719.1,557.5,726.7,557.5z"/>
		</g>
		<g>
			<path class="st30" d="M723,575.6c8.3,0,15-2.8,20-8.3c11.2-12.4,9.2-34.3,9.1-35.2c-0.2-1.7-1.7-3-3.4-2.8
				c-1.7,0.2-3,1.7-2.8,3.4c0,0.2,1.8,20-7.6,30.4c-3.8,4.2-8.8,6.2-15.4,6.2c-1.7,0-3.1,1.4-3.1,3.1
				C719.9,574.2,721.3,575.6,723,575.6z"/>
		</g>
		<g>
			<g>
				<g>
					<path class="st46" d="M635.9,411.9h30.6c0.6,0,1-0.5,1-1v-1.5c0-0.6-0.5-1-1-1h-30.6c-0.6,0-1,0.5-1,1v1.5
						C634.9,411.5,635.4,411.9,635.9,411.9z"/>
				</g>
			</g>
		</g>
		<g>
			<g>
				<g>
					<path class="st46" d="M635.9,419.5h30.6c0.6,0,1-0.5,1-1V417c0-0.6-0.5-1-1-1h-30.6c-0.6,0-1,0.5-1,1v1.5
						C634.9,419.1,635.4,419.5,635.9,419.5z"/>
				</g>
			</g>
		</g>
		<g>
			<g>
				<g>
					<path class="st46" d="M638.3,464.9h25.8c1.9,0,3.4-1.5,3.4-3.4v-33.3c0-1.9-1.5-3.4-3.4-3.4h-25.8c-1.9,0-3.4,1.5-3.4,3.4v33.3
						C634.9,463.3,636.4,464.9,638.3,464.9z"/>
				</g>
			</g>
		</g>
		<g>
			<g>
				<g>
					<path class="st46" d="M575.7,464.9h47.2c3,0,5.4-2.4,5.4-5.4v-45.7c0-3-2.4-5.4-5.4-5.4h-47.2c-3,0-5.4,2.4-5.4,5.4v45.7
						C570.3,462.4,572.7,464.9,575.7,464.9z"/>
				</g>
			</g>
		</g>
	</g>
</g>
</svg>
